<svg enable-background="new 0 0 512 512" viewBox="0 0 512 512" xmlns="http://www.w3.org/2000/svg"><path d="m223.368 405.132s6.026-31.637 32.516-43.062c19.589-8.448 50.325-25.896 67.658-43.807 6.136-6.343 5.98-16.471-.37-22.595-5.443-5.267-13.659-5.877-19.76-1.939 0 0-14.279 9.479-39.552-3.043-18.634-9.233-4.096-29.587-4.096-29.587s-28.531-28.979-28.715-28.806c-18.128 17.024-17.561-5.098-17.561-5.098-.53-24.749 18.339-46.214 18.339-46.214 8.497-8.134 8.792-21.618.66-30.117-8.16-8.533-21.622-8.801-30.123-.667-2.494 2.386-32.657 31.635-58.673 73.376s-23.268 37.183-55.772 41.136c-.045.005-23.094 3.866-39.883 16.413-46.086 34.441-54.304 103.104-16.803 155.488 37.502 52.384 105.825 67.7 152.606 34.21 21.899-15.678 35.427-39.653 39.529-65.688z" fill="#d80027"/><path d="m289.132 314.172c-1.703-3.509-6.761-3.908-10.546-3.664-1.417.251-2.913.463-4.485.611-.01.002-.023.005-.023.005l.004-.003c-10.675 1.01-24.558-.827-37.088-12.401-.001-.001-.002-.002-.003-.003-9.136-9.136-6.544-19.201-2.993-27.875-4.473-4.531-8.886-9.756-13.604-14.48-10.58 6.038-20.57-1.868-23.308-4.604 0 0-.001-.001-.002-.002-3.892-3.892-5.152-9.389-5.537-13.214-.854-4.719-2.74-8.195-2.74-8.195s-15.838-27.23-27.588 16.91c0 0-8.214 49.092-47.073 70.388.088.088-60.778 24.648 14.683 100.82 0 0 16.294 19.566 17.791 40.429 0 0-.405 8.748 6.349 6.475 5.09-2.193 9.989-4.923 14.612-8.232 17.833-12.767 29.529-31.733 33.153-54.73 0 0 7.209-36.339 36.808-49.104 13.593-5.862 31.442-15.675 45.896-26.432 9.418-7.788 5.688-12.551 5.694-12.699z" fill="#fff"/><path d="m45.485 448.08c-37.501-52.384-29.283-121.047 16.801-155.488 16.789-12.547 39.839-16.408 39.883-16.413 32.504-3.953 55.685-40.996 55.769-41.131.001-.001.004-.006.004-.006 26.016-41.739 56.179-70.99 58.673-73.376 5.425-5.19 12.865-6.943 19.662-5.328-.947-1.962-2.202-3.817-3.79-5.476-8.16-8.533-21.622-8.801-30.123-.666-2.494 2.386-32.657 31.635-58.673 73.376s-23.268 37.183-55.772 41.136c-.045.005-23.094 3.866-39.883 16.413-46.086 34.442-54.304 103.105-16.803 155.489 8.947 12.499 19.652 22.881 31.398 30.999-6.21-5.785-11.973-12.302-17.146-19.529z" fill="#a5001e"/><circle cx="168.911" cy="410.915" fill="#57565c" r="13.157"/><circle cx="168.911" cy="442.321" fill="#57565c" r="7.49"/><path d="m124.453 327.766c38.859-21.296 47.073-70.388 47.073-70.388 5.877-22.08 12.778-26.302 18.208-25.006-.52-1.271-.926-2.025-.926-2.025s-15.838-27.231-27.588 16.91c0 0-8.214 49.092-47.073 70.388.088.088-60.778 24.649 14.683 100.82 0 0 16.294 19.566 17.79 40.429 0 0-.405 8.748 6.349 6.475 1.106-.477 2.202-.984 3.289-1.512-3.429-18.817-17.122-35.271-17.122-35.271-75.461-76.173-14.595-100.732-14.683-100.82z" fill="#d8d7da"/><path d="m112.664 421.228-41.992-41.992c-3.919-3.919-3.919-10.333 0-14.251l3.325-3.325c3.919-3.919 10.333-3.919 14.251 0l41.992 41.992c3.919 3.919 3.919 10.333 0 14.251l-3.325 3.325c-3.918 3.919-10.332 3.919-14.251 0z" fill="#57565c"/><path d="m80.793 375.647 3.325-3.325c3.92-3.919 10.333-3.919 14.251 0l-10.121-10.664c-3.919-3.919-10.333-3.919-14.251 0l-3.325 3.325c-3.919 3.919-3.919 10.333 0 14.253l8.474 8.473c-2.151-3.837-1.607-8.807 1.647-12.062z" fill="#2d2d30"/><path d="m149.07 386.262c-1.942 0-3.885-.741-5.368-2.224l-35.786-35.786c-2.965-2.964-2.965-7.77-.001-10.734 2.965-2.964 7.771-2.964 10.735 0l35.786 35.786c2.965 2.964 2.965 7.77.001 10.734-1.482 1.483-3.425 2.224-5.367 2.224z" fill="#acabb1"/><path d="m174.287 359.401c-1.943 0-3.885-.741-5.368-2.224l-34.175-34.175c-2.964-2.964-2.964-7.771 0-10.735 2.966-2.964 7.772-2.964 10.735 0l34.175 34.175c2.964 2.964 2.964 7.771 0 10.734-1.481 1.484-3.424 2.225-5.367 2.225z" fill="#acabb1"/><path d="m197.634 329.756c-1.942 0-3.885-.741-5.368-2.224l-30.249-30.248c-2.964-2.964-2.964-7.771 0-10.734 2.965-2.964 7.771-2.964 10.735 0l30.249 30.248c2.964 2.964 2.964 7.771 0 10.735-1.483 1.481-3.425 2.223-5.367 2.223z" fill="#acabb1"/><path d="m386.805 126.19-20.715-20.715-173.04 162.501c-2.918 2.918-1.331 5.939.885 8.155l21.979 21.979c2.221 2.221 5.517 3.531 8.174.874z" fill="#57565c"/><path d="m202.502 278.403 173.04-162.501-9.453-10.426-173.04 162.501c-2.918 2.918-1.332 5.939.885 8.155l7.294 7.294c-.592-1.59-.426-3.324 1.274-5.023z" fill="#2d2d30"/><g fill="#ffdaaa"><path d="m208.079 254.09c-.043-.043-.093-.074-.138-.112l-3.604 3.384c.067.088.131.178.212.259l29.833 29.833c.096.096.203.176.311.254l3.379-3.589c-.054-.065-.099-.135-.16-.195z"/><path d="m220.395 242.282 29.392 29.393 3.425-3.636-29.177-29.176z"/><path d="m236.477 227.179 28.435 28.435 3.424-3.636-28.218-28.219z"/><path d="m252.56 212.077 27.476 27.476 3.425-3.636-27.261-27.26z"/><path d="m268.641 196.974 26.52 26.519 3.424-3.636-26.302-26.303z"/><path d="m284.724 181.87 25.562 25.562 3.424-3.637-25.344-25.345z"/><path d="m300.807 166.767 24.603 24.604 3.424-3.637-24.386-24.386z"/><path d="m316.889 151.665 23.645 23.645 3.425-3.636-23.429-23.429z"/><path d="m359.083 155.612-22.47-22.47-3.641 3.419 22.687 22.688z"/><path d="m374.208 139.552-21.512-21.512-3.642 3.418 21.729 21.73z"/></g><path d="m207.94 253.978-3.604 3.384c.068.088.131.178.212.259l9.726 9.726 3.642-3.42-9.838-9.838c-.042-.041-.093-.073-.138-.111z" fill="#ffb655"/><path d="m220.395 242.282 9.962 9.962 3.642-3.419-9.964-9.962z" fill="#ffb655"/><path d="m236.477 227.179 9.962 9.962 3.642-3.42-9.962-9.962z" fill="#ffb655"/><path d="m252.56 212.076 9.962 9.963 3.641-3.42-9.963-9.962z" fill="#ffb655"/><path d="m268.642 196.973 9.962 9.963 3.642-3.42-9.962-9.962z" fill="#ffb655"/><path d="m284.724 181.87 9.963 9.962 3.641-3.419-9.962-9.963z" fill="#ffb655"/><path d="m300.807 166.767 9.962 9.963 3.642-3.42-9.963-9.962z" fill="#ffb655"/><path d="m316.889 151.665 9.962 9.962 3.642-3.42-9.963-9.962z" fill="#ffb655"/><path d="m332.972 136.561 9.962 9.963 3.641-3.42-9.962-9.962z" fill="#ffb655"/><path d="m352.696 118.04-3.642 3.418 9.962 9.964 3.642-3.42z" fill="#ffb655"/><path d="m501.39 45.225-.002-.006c-.156-.403-.364-.785-.622-1.138-.701-.958-1.471-1.858-2.287-2.675-11.406-11.406-28.824-4.502-29.561-4.202l-94.016 38.303c-1.981.808-3.22 2.795-3.071 4.929l.894 12.802-6.877 6.877c-1.933 1.933-1.933 5.068 0 7.001l19.252 19.252c.005.005.01.01.014.013 1.933 1.933 5.068 1.933 7.001 0 .117-.117.228-.239.331-.365l7.417-7.555c30.584 11.467 48.095-5.044 49.017-5.827 3.877-3.288 5.564-6.976 5.822-7.479 14.159-27.694 20.32-27.086 22.492-27.428.773-.122 1.788-.224 2.689.965 2.805 3.701 5.721 4.751 8.362 2.538 19.434-16.286 15.802-30.44 13.145-36.005z" fill="#ffc477"/><path d="m376.992 113.053 6.877-6.877-.894-12.802c-.149-2.134 1.09-4.121 3.071-4.929l94.016-38.303c.604-.246 12.39-4.913 22.905-.335-.421-1.863-1.019-3.414-1.576-4.581l-.002-.006c-.156-.403-.364-.785-.622-1.138-.701-.958-1.471-1.858-2.287-2.675-11.406-11.406-28.824-4.502-29.562-4.202l-94.016 38.303c-1.981.808-3.22 2.795-3.071 4.929l.894 12.802-6.877 6.877c-1.933 1.933-1.933 5.068 0 7.001l9.721 9.722c-.078-1.361.384-2.747 1.423-3.786z" fill="#ffa733"/><path d="m506.891 39.598c-.928-1.268-12.308-20.182-40.839-9.424l-7.762 3.162c.796-1.616 1.254-3.427 1.254-5.35 0-6.708-5.438-12.146-12.146-12.146s-12.146 5.438-12.146 12.146c0 5.285 3.381 9.769 8.094 11.439l-16.409 6.685-.077-.204c1.085-1.818 1.719-3.935 1.719-6.206 0-6.708-5.438-12.146-12.146-12.146s-12.146 5.438-12.146 12.146c0 5.385 3.508 9.945 8.36 11.537l.226.604-15.545 6.334-.095-.253c1.084-1.818 1.719-3.935 1.719-6.205 0-6.708-5.438-12.146-12.146-12.146s-12.146 5.438-12.146 12.146c0 5.385 3.508 9.944 8.36 11.537l.244.652-11.224 4.573c-5.029 2.05-8.155 7.067-7.778 12.486l.653 9.353-4.431 4.43c-2.369 2.368-3.674 5.518-3.674 8.869 0 .053.007.104.008.157l-62.784 58.96c-3.057 2.869-3.207 7.674-.337 10.73 1.494 1.591 7.113 3.461 10.729.337l60.53-56.843 10.363 10.362-154.936 164.526-20.176-20.176 73.639-69.155c3.057-2.87 3.207-7.674.337-10.73-2.868-3.056-7.673-3.207-10.729-.337 0 0-41.091 38.28-42.097 38.897-.18-.934-6.031-19.894 16.014-44.168 11.216-11.044 11.517-29.153.602-40.56-5.346-5.591-25.936-15.122-40.859-.904-3.36 3.201-33.521 32.578-59.853 74.824-.216.341-21.81 34.176-50.286 37.639-.234.029-25.001 4.051-43.486 17.866-29.529 22.068-45.695 58.512-43.246 97.485.253 4.022 3.594 7.115 7.57 7.115.16 0 .321-.005.484-.015 4.184-.263 7.362-3.868 7.1-8.052-2.127-33.841 11.773-65.382 37.183-84.372 14.49-10.831 34.69-14.665 36.457-14.984 35.469-4.449 60.049-42.966 61.096-44.631 25.799-41.392 56.197-70.681 57.478-71.906 2.652-2.536 11.89-6.968 19.392.429 9.354 9.223-.734 19.695-.876 19.859-.848.966-20.734 23.908-20.231 51.224-.033 2.12.181 9.399 4.175 14.388l-22.216 20.863c-.059.055-.114.109-.171.166-4.482 4.481-5.946 12.059.883 18.89l21.98 21.98c3.028 3.027 6.676 4.558 10.214 4.558 3.159 0 6.231-1.221 8.695-3.684.055-.054.106-.108.159-.164l18.528-19.674c1.562 4.229 4.968 9.314 12.35 12.972 28.861 14.301 46.389 3.052 47.038 2.619 3.29-2.123 7.554-1.704 10.376 1.025 1.604 1.547 2.509 3.629 2.547 5.864.038 2.247-.8 4.374-2.362 5.989-15.966 16.499-44.994 33.398-65.209 42.116-29.844 12.871-36.69 47.159-36.966 48.613-.016.08-.029.159-.041.239-3.962 25.15-16.907 46.705-36.452 60.697-34.428 24.646-83.977 20.806-120.49-9.341-3.234-2.67-8.019-2.214-10.687 1.021-2.67 3.233-2.212 8.017 1.02 10.687 20.01 16.521 44.555 26.733 69.112 28.755 3.156.26 6.289.39 9.395.39 22.109 0 42.86-6.547 60.488-19.167 22.832-16.346 37.95-41.381 42.582-70.507.372-1.749 6.332-28.077 28.051-37.445 21.558-9.297 52.691-27.501 70.108-45.499 4.385-4.533 6.741-10.502 6.632-16.808-.108-6.294-2.662-12.165-7.18-16.521-7.898-7.643-19.864-8.83-29.193-2.836l.086-.056c-.463.28-11.585 6.736-32.113-3.437-3.805-1.886-4.7-3.884-5.041-5.226-1.125-4.411 2.041-10.536 3.517-12.797l122.831-130.44c.025 0 .051.004.075.004 3.35 0 6.499-1.305 8.869-3.673.196-.196 4.46-4.572 4.46-4.572 40.01 13.52 57.179-13.846 59.517-18.567 8.019-15.683 12.862-20.865 14.893-22.519 3.371 3.137 6.664 3.88 9.029 3.88h.001c2.779 0 5.518-.939 7.739-2.924 31.315-27.997 14.353-46.65 13.766-47.455zm-21.403 33.96c-1.945-2.256-17.631-12.576-37.541 28.135l-.108.217c-1.169 2.361-13.878 19.222-45.311 9.445-2.866-.892-5.979-.353-8.082 1.79l-5.623 5.729c-.205-.057-15.277-14.796-15.277-14.796-.047-.251 4.547-5.472 4.547-5.472 1.553-1.554 2.357-3.704 2.204-5.896l-.76-10.895 9.049-3.687 5.942 15.872c2.387 5.942 8.894 4.776 9.771 4.448 3.926-1.47 5.918-5.844 4.448-9.77l-6.094-16.28 15.545-6.334 5.96 15.919c2.614 6.151 8.893 4.776 9.77 4.448 3.926-1.47 5.918-5.844 4.447-9.77l-6.112-16.327 16.608-6.767 6.253 16.702c3.024 6.393 8.894 4.776 9.771 4.448 3.926-1.47 5.918-5.844 4.448-9.77l-6.406-17.111c23.718-11.891 31.58.605 31.607.664 2.123 4.453 3.594 13.449-9.056 25.058z"/><path d="m22.626 404.733c-1.491-3.92-5.875-5.885-9.793-4.399-3.919 1.49-5.887 5.874-4.399 9.793 4.128 10.86 9.797 21.204 16.627 30.901 3.277 4.654 9.253 2.711 10.592 1.753 3.408-2.44 4.194-7.182 1.753-10.591-6.144-8.58-11.116-17.818-14.78-27.457z"/></svg>